<svg data-v-0dd9719b="" version="1.0" xmlns="http://www.w3.org/2000/svg" xmlns:xlink="http://www.w3.org/1999/xlink" width="100%" height="100%" viewBox="0 0 340.000000 250.000000" preserveAspectRatio="xMidYMid meet" color-interpolation-filters="sRGB" style="margin: auto;"> <rect data-v-0dd9719b="" x="0" y="0" width="100%" height="100%" fill="#fff" fill-opacity="1" class="background"></rect> <rect data-v-0dd9719b="" x="0" y="0" width="100%" height="100%" fill="url(#watermark)" fill-opacity="1" class="watermarklayer"></rect> <g data-v-0dd9719b="" fill="#e60012" class="icon-text-wrapper icon-svg-group iconsvg" transform="translate(48.349998474121094,95)"><g class="iconsvg-imagesvg" transform="translate(0,0)"><g><rect fill="#e60012" fill-opacity="0" stroke-width="2" x="0" y="0" width="60" height="60" class="image-rect"></rect> <svg x="0" y="0" width="60" height="60" filtersec="colorsb8040384760" class="image-svg-svg primary" style="overflow: visible;"><svg xmlns="http://www.w3.org/2000/svg" viewBox="0 0 1130.3299560546875 1130.3299560546875"><defs><filter id="a915a8d2c-107e-44a9-bd7d-570e896b5dcb" x="320.8" y="-9001.79" width="120.8" height="32766" filterUnits="userSpaceOnUse" color-interpolation-filters="sRGB"><feFlood flood-color="#fff" result="bg"></feFlood><feBlend in="SourceGraphic" in2="bg"></feBlend></filter><linearGradient id="eb36d44ae-189b-4895-b66a-d8ab0b71e46a" x1="393.75" y1="551.91" x2="368.04" y2="510.77" gradientUnits="userSpaceOnUse"><stop offset="0" stop-color="#404040"></stop><stop offset=".19" stop-color="#363636"></stop><stop offset=".51" stop-color="#1b1b1b"></stop><stop offset=".78"></stop></linearGradient><filter id="bdf767248-466e-48c4-b5a4-b9f72e7d8b76" x="543.92" y="-9001.79" width="230.59" height="32766" filterUnits="userSpaceOnUse" color-interpolation-filters="sRGB"><feFlood flood-color="#fff" result="bg"></feFlood><feBlend in="SourceGraphic" in2="bg"></feBlend></filter><linearGradient id="hcf499956-73b8-4686-9e5e-9b924a5183b3" x1="676.25" y1="577.54" x2="645.86" y2="528.92" gradientUnits="userSpaceOnUse"><stop offset=".22"></stop><stop offset=".56" stop-color="#282828"></stop><stop offset=".84" stop-color="#434343"></stop><stop offset="1" stop-color="#4d4d4d"></stop></linearGradient><filter id="dfecc2851-f8cd-4459-843d-981a0c9c7442" x="320.8" y="473.64" width="120.8" height="116.39" filterUnits="userSpaceOnUse" color-interpolation-filters="sRGB"><feFlood flood-color="#fff" result="bg"></feFlood><feBlend in="SourceGraphic" in2="bg"></feBlend></filter><mask id="i0a4b8535-1015-4237-9146-862de409b260" x="320.8" y="473.64" width="120.8" height="116.39" maskUnits="userSpaceOnUse"><g mask="url(#c4cc67c37-8dab-42c8-8ee2-cf5044645040)" filter="url(#dfecc2851-f8cd-4459-843d-981a0c9c7442)"><path fill="url(#eb36d44ae-189b-4895-b66a-d8ab0b71e46a)" style="mix-blend-mode:multiply" d="M441.6 522l-120.8 68.03v-49.74l120.8-66.66V522z"></path></g></mask><linearGradient id="jcc0631ed-6c3b-498b-ac4e-c61c4590cfcb" x1="393.75" y1="551.91" x2="368.04" y2="510.77" gradientUnits="userSpaceOnUse"><stop offset="0"></stop><stop offset=".07" stop-color="#0a0a0a"></stop><stop offset=".18" stop-color="#252525"></stop><stop offset=".32" stop-color="#515151"></stop><stop offset=".5" stop-color="#8d8d8d"></stop><stop offset=".69" stop-color="#dadada"></stop><stop offset=".78" stop-color="#fff"></stop></linearGradient><filter id="g3ea80f07-4795-4cbd-b54c-398f51d1fe4e" x="543.92" y="490.13" width="230.59" height="102.5" filterUnits="userSpaceOnUse" color-interpolation-filters="sRGB"><feFlood flood-color="#fff" result="bg"></feFlood><feBlend in="SourceGraphic" in2="bg"></feBlend></filter><mask id="kda093cae-9d28-4707-b7b1-6e1dd85d860a" x="543.92" y="490.13" width="230.59" height="102.5" maskUnits="userSpaceOnUse"><g mask="url(#f21a8ece7-469f-46e3-bf0d-e54fbd93cbb9)" filter="url(#g3ea80f07-4795-4cbd-b54c-398f51d1fe4e)"><path d="M714.81 490.13l-170.9 102.5h108.2l122.4-84.69c-17.01-7.73-36.82-13.59-59.7-17.81z" fill="url(#hcf499956-73b8-4686-9e5e-9b924a5183b3)" style="mix-blend-mode:multiply"></path></g></mask><linearGradient id="le76cba8a-6680-4a4a-8f86-7e32aace0af6" x1="676.25" y1="577.54" x2="645.86" y2="528.92" gradientUnits="userSpaceOnUse"><stop offset=".22" stop-color="#fff"></stop><stop offset=".31" stop-color="#dadada"></stop><stop offset=".5" stop-color="#8d8d8d"></stop><stop offset=".68" stop-color="#515151"></stop><stop offset=".82" stop-color="#252525"></stop><stop offset=".93" stop-color="#0a0a0a"></stop><stop offset="1"></stop></linearGradient><linearGradient id="m90cc2044-c5c6-4ef2-989f-2ce513af5f65" x1="435.07" y1="647.45" x2="675.48" y2="407.04" gradientUnits="userSpaceOnUse"><stop offset=".11" stop-color="#f6ab00"></stop><stop offset=".37" stop-color="#f17705"></stop><stop offset=".91" stop-color="#e60012"></stop></linearGradient></defs><g style="isolation:isolate"><g><path d="M565.16 1130.33C253.54 1130.33 0 876.8 0 565.17S253.54 0 565.16 0s565.17 253.54 565.17 565.17-253.55 565.16-565.17 565.16zm0-1081c-284.4 0-515.8 231.38-515.8 515.8S280.76 1081 565.16 1081 1081 849.57 1081 565.17 849.57 49.37 565.16 49.37z" fill="#f6ab00"></path><path d="M650.39 198.84H350c-17.39 0-30.22 11.9-30.22 29.3l1 364 120.8-69.37V320.64h208.81c18.34 0 31.18 15.57 31.18 33.88 0 10.08-2.35 18-5.5 23.8-4.7 8.66-23 22.2-46.86 37.48l-118.16 67.25-12.6 7.07h216.34l-.27-.06c37.55-20.15 62.27-40.29 73.26-59.52s16.5-44 16.5-76c.01-85.18-67.79-155.7-153.89-155.7z" fill="#e60012"></path><path d="M320.8 590l.79 312.16c0 14.65 11 29.3 28.38 29.3h307.72a198.56 198.56 0 0 0 198.74-198.7v-76c0-98.91-42.16-148.36-141.95-166.69 4.34-2.34 8.51-4.68 12.52-7H511zm415.64 115.29c0 10.07-.91 17.39-.91 27.47 0 3.67.91 25.65-13.74 43l-9.16 11c-15.57 15.57-33.88 22.9-55 22.9H441.58V654l102.29-61.36h127.57c33.9 0 65.93 21.07 65.93 87-.01 8.23-.93 17.36-.93 25.65z" fill="#f6ab00"></path><g mask="url(#i0a4b8535-1015-4237-9146-862de409b260)"><path fill="url(#jcc0631ed-6c3b-498b-ac4e-c61c4590cfcb)" style="mix-blend-mode:multiply" d="M441.6 522l-120.8 68.03v-49.74l120.8-66.66V522z"></path></g><g mask="url(#kda093cae-9d28-4707-b7b1-6e1dd85d860a)"><path d="M714.81 490.13l-170.9 102.5h108.2l122.4-84.69c-17.01-7.73-36.82-13.59-59.7-17.81z" fill="url(#le76cba8a-6680-4a4a-8f86-7e32aace0af6)" style="mix-blend-mode:multiply"></path></g><path fill="url(#m90cc2044-c5c6-4ef2-989f-2ce513af5f65)" d="M629.2 415.81L408.33 540.84l33.27 113.15 300.55-180.28-112.95-57.9z"></path></g></g></svg></svg> <!----></g></g> <g transform="translate(67,20.894999504089355)"><g data-gra="path-name" fill-rule="" class="tp-name iconsvg-namesvg"><g transform="scale(1)"><g><path d="M8.46 0L2.16 0 2.16-17.81 7.84-17.81Q9.48-17.81 10.67-17.49 11.86-17.16 12.62-16.57 13.39-15.97 13.75-15.11 14.12-14.24 14.12-13.16L14.12-13.16Q14.12-12.5 13.91-11.89 13.71-11.29 13.29-10.76 12.88-10.24 12.25-9.83 11.62-9.42 10.78-9.16L10.78-9.16Q12.73-8.78 13.72-7.76 14.72-6.74 14.72-5.07L14.72-5.07Q14.72-3.94 14.3-3.01 13.88-2.08 13.08-1.4 12.28-0.73 11.12-0.37 9.96 0 8.46 0L8.46 0ZM8.41-8.12L4.57-8.12 4.57-1.91 8.43-1.91Q9.46-1.91 10.2-2.15 10.94-2.39 11.42-2.82 11.89-3.24 12.12-3.83 12.34-4.42 12.34-5.13L12.34-5.13Q12.34-6.51 11.37-7.31 10.39-8.12 8.41-8.12L8.41-8.12ZM4.57-15.91L4.57-9.83 7.76-9.83Q8.78-9.83 9.52-10.06 10.27-10.28 10.76-10.68 11.25-11.07 11.48-11.64 11.72-12.21 11.72-12.88L11.72-12.88Q11.72-14.44 10.78-15.18 9.83-15.91 7.84-15.91L7.84-15.91 4.57-15.91ZM22.72-7.43L20.89-7.43 20.89 0 18.49 0 18.49-17.81 23.53-17.81Q25.22-17.81 26.45-17.47 27.68-17.13 28.48-16.48 29.28-15.83 29.67-14.92 30.05-14.01 30.05-12.88L30.05-12.88Q30.05-11.93 29.76-11.11 29.46-10.29 28.89-9.64 28.33-8.99 27.51-8.53 26.7-8.07 25.67-7.83L25.67-7.83Q26.11-7.57 26.46-7.07L26.46-7.07 31.66 0 29.52 0Q28.86 0 28.55-0.51L28.55-0.51 23.93-6.87Q23.71-7.17 23.47-7.3 23.22-7.43 22.72-7.43L22.72-7.43ZM20.89-15.91L20.89-9.19 23.42-9.19Q24.47-9.19 25.27-9.44 26.08-9.69 26.62-10.16 27.16-10.63 27.43-11.27 27.7-11.92 27.7-12.7L27.7-12.7Q27.7-14.29 26.65-15.1 25.6-15.91 23.53-15.91L23.53-15.91 20.89-15.91ZM34.25-17.81L45.23-17.81 45.23-15.85 36.68-15.85 36.68-9.93 43.6-9.93 43.6-8.04 36.68-8.04 36.68-1.96 45.23-1.96 45.23 0 34.25 0 34.25-17.81ZM52.26 0L46.71-17.81 48.71-17.81Q49.03-17.81 49.24-17.65 49.46-17.49 49.53-17.24L49.53-17.24 53.21-4.86Q53.31-4.52 53.39-4.14 53.47-3.75 53.55-3.33L53.55-3.33Q53.63-3.75 53.72-4.15 53.81-4.54 53.92-4.86L53.92-4.86 58.11-17.24Q58.18-17.45 58.4-17.63 58.62-17.81 58.93-17.81L58.93-17.81 59.62-17.81Q59.95-17.81 60.15-17.65 60.36-17.49 60.44-17.24L60.44-17.24 64.61-4.86Q64.83-4.21 65-3.38L65-3.38Q65.08-3.79 65.14-4.16 65.2-4.54 65.3-4.86L65.3-4.86 68.99-17.24Q69.06-17.46 69.27-17.64 69.49-17.81 69.8-17.81L69.8-17.81 71.68-17.81 66.12 0 63.96 0 59.45-13.59Q59.31-13.97 59.2-14.48L59.2-14.48Q59.14-14.23 59.08-14 59.03-13.77 58.96-13.59L58.96-13.59 54.43 0 52.26 0ZM81.97-1.75L81.97-1.75Q82.69-1.75 83.29-1.82 83.9-1.89 84.43-2.03 84.97-2.16 85.44-2.36 85.91-2.55 86.38-2.8L86.38-2.8 86.38-6.72 83.62-6.72Q83.39-6.72 83.24-6.86 83.1-7 83.1-7.2L83.1-7.2 83.1-8.56 88.57-8.56 88.57-1.73Q87.9-1.24 87.17-0.88 86.45-0.52 85.62-0.28 84.79-0.04 83.85 0.08 82.9 0.2 81.8 0.2L81.8 0.2Q79.86 0.2 78.24-0.47 76.63-1.13 75.46-2.33 74.29-3.53 73.64-5.21 72.98-6.89 72.98-8.9L72.98-8.9Q72.98-10.94 73.62-12.62 74.26-14.29 75.45-15.49 76.64-16.69 78.32-17.35 80.01-18.01 82.1-18.01L82.1-18.01Q83.15-18.01 84.06-17.85 84.97-17.7 85.74-17.41 86.52-17.12 87.18-16.7 87.84-16.28 88.41-15.76L88.41-15.76 87.73-14.67Q87.51-14.33 87.18-14.33L87.18-14.33Q86.98-14.33 86.74-14.47L86.74-14.47Q86.43-14.64 86.05-14.89 85.66-15.14 85.11-15.37 84.56-15.6 83.8-15.76 83.05-15.92 82.02-15.92L82.02-15.92Q80.52-15.92 79.3-15.43 78.08-14.94 77.22-14.03 76.37-13.11 75.91-11.81 75.45-10.52 75.45-8.9L75.45-8.9Q75.45-7.21 75.92-5.89 76.4-4.56 77.27-3.64 78.14-2.72 79.34-2.24 80.53-1.75 81.97-1.75ZM95.13-17.81L95.13 0 92.72 0 92.72-17.81 95.13-17.81ZM101.15-17.81L101.15-17.81Q101.47-17.81 101.63-17.73 101.78-17.65 101.98-17.4L101.98-17.4 112.3-3.98Q112.26-4.3 112.25-4.61 112.24-4.91 112.24-5.2L112.24-5.2 112.24-17.81 114.35-17.81 114.35 0 113.13 0Q112.84 0 112.65-0.1 112.46-0.2 112.27-0.44L112.27-0.44 101.97-13.85Q101.99-13.54 102.01-13.24 102.02-12.94 102.02-12.69L102.02-12.69 102.02 0 99.91 0 99.91-17.81 101.15-17.81ZM119.94-17.81L119.94-17.81Q120.27-17.81 120.42-17.73 120.58-17.65 120.77-17.4L120.77-17.4 131.09-3.98Q131.05-4.3 131.04-4.61 131.03-4.91 131.03-5.2L131.03-5.2 131.03-17.81 133.14-17.81 133.14 0 131.92 0Q131.64 0 131.45-0.1 131.25-0.2 131.07-0.44L131.07-0.44 120.76-13.85Q120.79-13.54 120.8-13.24 120.81-12.94 120.81-12.69L120.81-12.69 120.81 0 118.7 0 118.7-17.81 119.94-17.81ZM140.35-17.81L140.35 0 137.94 0 137.94-17.81 140.35-17.81ZM146.37-17.81L146.37-17.81Q146.69-17.81 146.85-17.73 147-17.65 147.2-17.4L147.2-17.4 157.52-3.98Q157.48-4.3 157.47-4.61 157.45-4.91 157.45-5.2L157.45-5.2 157.45-17.81 159.57-17.81 159.57 0 158.35 0Q158.06 0 157.87-0.1 157.68-0.2 157.49-0.44L157.49-0.44 147.19-13.85Q147.21-13.54 147.22-13.24 147.24-12.94 147.24-12.69L147.24-12.69 147.24 0 145.12 0 145.12-17.81 146.37-17.81ZM171.86-1.75L171.86-1.75Q172.58-1.75 173.18-1.82 173.79-1.89 174.32-2.03 174.85-2.16 175.33-2.36 175.8-2.55 176.27-2.8L176.27-2.8 176.27-6.72 173.51-6.72Q173.28-6.72 173.13-6.86 172.99-7 172.99-7.2L172.99-7.2 172.99-8.56 178.46-8.56 178.46-1.73Q177.79-1.24 177.06-0.88 176.33-0.52 175.51-0.28 174.68-0.04 173.74 0.08 172.79 0.2 171.68 0.2L171.68 0.2Q169.75 0.2 168.13-0.47 166.51-1.13 165.35-2.33 164.18-3.53 163.53-5.21 162.87-6.89 162.87-8.9L162.87-8.9Q162.87-10.94 163.51-12.62 164.15-14.29 165.34-15.49 166.53-16.69 168.21-17.35 169.9-18.01 171.98-18.01L171.98-18.01Q173.04-18.01 173.95-17.85 174.85-17.7 175.63-17.41 176.41-17.12 177.07-16.7 177.73-16.28 178.3-15.76L178.3-15.76 177.61-14.67Q177.4-14.33 177.07-14.33L177.07-14.33Q176.87-14.33 176.63-14.47L176.63-14.47Q176.32-14.64 175.94-14.89 175.55-15.14 175-15.37 174.44-15.6 173.69-15.76 172.94-15.92 171.91-15.92L171.91-15.92Q170.4-15.92 169.19-15.43 167.97-14.94 167.11-14.03 166.25-13.11 165.79-11.81 165.33-10.52 165.33-8.9L165.33-8.9Q165.33-7.21 165.81-5.89 166.29-4.56 167.16-3.64 168.03-2.72 169.22-2.24 170.42-1.75 171.86-1.75Z" transform="translate(-2.1600000858306885, 18.010000228881836)"></path></g> <!----> <!----> <!----> <!----> <!----> <!----> <!----></g></g> <!----></g></g><defs v-gra="od"></defs></svg>